<?xml version="1.0" standalone="no"?>
<!DOCTYPE svg PUBLIC "-//W3C//DTD SVG 1.1//EN" "http://www.w3.org/Graphics/SVG/1.1/DTD/svg11.dtd" >
<svg xmlns="http://www.w3.org/2000/svg" xmlns:xlink="http://www.w3.org/1999/xlink" version="1.1">
<metadata>
Created by FontForge 20170731 at Tue Mar 20 02:32:44 2001
 By Aleksey,,,
(C) 2001 Graham H Freeman. (C) 1998 Andrew C. Bul+hac?k. Freely distributable.
</metadata>
<defs>
<font id="ModeNine" horiz-adv-x="600" >
  <font-face 
    font-family="ModeNine"
    font-weight="400"
    font-stretch="normal"
    units-per-em="1000"
    panose-1="0 0 4 0 0 0 0 0 0 0"
    ascent="800"
    descent="-200"
    x-height="500"
    cap-height="700"
    bbox="0 -200 600 800"
    underline-thickness="20"
    underline-position="-163"
    unicode-range="U+0020-00F7"
  />
<missing-glyph 
d="M75 0v800h450v-800h-450zM150 75h300v650h-300v-650z" />
    <glyph glyph-name=".notdef" 
d="M75 0v800h450v-800h-450zM150 75h300v650h-300v-650z" />
    <glyph glyph-name=".null" horiz-adv-x="0" 
 />
    <glyph glyph-name="nonmarkingreturn" 
 />
    <glyph glyph-name="space" unicode=" " 
 />
    <glyph glyph-name="exclam" unicode="!" 
d="M400 200h-100v500h100v-500zM400 0h-100v100h100v-100z" />
    <glyph glyph-name="quotedbl" unicode="&#x22;" 
d="M500 400h-100v300h100v-300zM300 400h-100v300h100v-300z" />
    <glyph glyph-name="numbersign" unicode="#" 
d="M600 200h-100v-200h-100v200h-100v-200h-100v200h-100v100h100v100h-100v100h100v200h100v-200h100v200h100v-200h100v-100h-100v-100h100v-100zM400 300v100h-100v-100h100z" />
    <glyph glyph-name="dollar" unicode="$" 
d="M600 200q0 -75 -62.5 -137.5t-137.5 -62.5h-100q-75 0 -137.5 62.5t-62.5 137.5h100q0 -37 31.5 -68.5t68.5 -31.5v200q-75 0 -137.5 62.5t-62.5 137.5t62.5 137.5t137.5 62.5h100q75 0 137.5 -62.5t62.5 -137.5h-100q0 38 -31 69t-69 31v-200q75 0 137.5 -62.5
t62.5 -137.5zM300 400v200q-37 0 -68.5 -31t-31.5 -69q0 -37 31.5 -68.5t68.5 -31.5zM500 200q0 38 -31 69t-69 31v-200q38 0 69 31.5t31 68.5z" />
    <glyph glyph-name="percent" unicode="%" 
d="M300 600q0 -41 -29.5 -70.5t-70.5 -29.5t-70.5 29.5t-29.5 70.5t29.5 70.5t70.5 29.5t70.5 -29.5t29.5 -70.5zM600 525l-425 -425h-75v75l425 425h75v-75zM600 100q0 -41 -29.5 -70.5t-70.5 -29.5t-70.5 29.5t-29.5 70.5t29.5 70.5t70.5 29.5t70.5 -29.5t29.5 -70.5z" />
    <glyph glyph-name="ampersand" unicode="&#x26;" 
d="M600 226q-43 -49 -74 -81l74 -70v-75h-75l-72 77q-92 -77 -153 -77q-74 0 -137 63t-63 137q0 75 77 153q-45 44 -57 64q-20 33 -20 83q0 46 16 76q12 23 49 59q52 53 85 53t85 -53q37 -36 49 -59q16 -30 16 -76q0 -74 -77 -152l127 -127l75 79h75v-74zM300 500
q0 26 -15 45q-2 3 -35 34q-33 -31 -35 -34q-15 -19 -15 -45t16.5 -44t33.5 -35q12 12 36 37q14 16 14 42zM379 150l-129 129q-13 -12 -36 -37q-14 -16 -14 -42q0 -33 33.5 -66.5t66.5 -33.5q30 0 79 50z" />
    <glyph glyph-name="quotesingle" unicode="'" 
d="M400 400h-100v300h100v-300z" />
    <glyph glyph-name="parenleft" unicode="(" 
d="M500 0h-75l-125 125q-64 64 -80 98q-20 42 -20 127t20 127q16 34 80 98l125 125h75v-75l-125 -125q-48 -48 -58 -65q-17 -29 -17 -85t17 -85q10 -17 58 -65l125 -125v-75z" />
    <glyph glyph-name="parenright" unicode=")" 
d="M500 350q0 -85 -20 -127q-16 -34 -80 -98l-125 -125h-75v75l125 125q48 48 58 65q17 29 17 85t-17 85q-10 17 -58 65l-125 125v75h75l125 -125q64 -64 80 -98q20 -42 20 -127z" />
    <glyph glyph-name="asterisk" unicode="*" 
d="M600 100h-75l-125 125v-225h-100v225l-125 -125h-75v75l175 175l-175 175v75h75l125 -125v225h100v-225l125 125h75v-75l-175 -175l175 -175v-75z" />
    <glyph glyph-name="plus" unicode="+" 
d="M600 300h-200v-200h-100v200h-200v100h200v200h100v-200h200v-100z" />
    <glyph glyph-name="comma" unicode="," 
d="M400 100q0 -75 -62.5 -137.5t-137.5 -62.5v100q38 0 69 31t31 69v150h100v-150z" />
    <glyph glyph-name="hyphen" unicode="-" 
d="M600 300h-500v100h500v-100z" />
    <glyph glyph-name="hyphen" unicode="&#x2010;" 
d="M600 300h-500v100h500v-100z" />
    <glyph glyph-name="period" unicode="." 
d="M400 0h-100v100h100v-100z" />
    <glyph glyph-name="slash" unicode="/" 
d="M600 500l-450 -450l-50 150l450 450z" />
    <glyph glyph-name="zero" unicode="0" 
d="M600 200q0 -75 -62.5 -137.5t-137.5 -62.5h-100q-75 0 -137.5 62.5t-62.5 137.5v300q0 75 62.5 137.5t137.5 62.5h100q75 0 137.5 -62.5t62.5 -137.5v-300zM500 200v300q0 38 -31 69t-69 31h-100q-37 0 -68.5 -31t-31.5 -69v-300q0 -37 31.5 -68.5t68.5 -31.5h100
q38 0 69 31.5t31 68.5zM400 300h-100v100h100v-100z" />
    <glyph glyph-name="one" unicode="1" 
d="M500 0h-300v100h100v432q-49 -32 -100 -32v100q38 0 69 31.5t31 68.5h100v-600h100v-100z" />
    <glyph glyph-name="two" unicode="2" 
d="M600 0h-500v200q0 75 62.5 137.5t137.5 62.5h100q38 0 69 31t31 69t-31 69t-69 31h-100q-38 0 -69 -31t-31 -69h-100q0 75 62.5 137.5t137.5 62.5h100q75 0 137.5 -62.5t62.5 -137.5t-62.5 -137.5t-137.5 -62.5h-100q-38 0 -69 -31t-31 -69v-100h400v-100z" />
    <glyph glyph-name="three" unicode="3" 
d="M600 200q0 -75 -62.5 -137.5t-137.5 -62.5h-100q-75 0 -137.5 62.5t-62.5 137.5h100q0 -38 31 -69t69 -31h100q38 0 69 31t31 69t-31 69t-69 31h-200l300 300h-400v100h500v-150l-156 -156q63 -18 109.5 -74t46.5 -120z" />
    <glyph glyph-name="four" unicode="4" 
d="M600 200h-100v-200h-100v200h-300v200l300 300h100v-400h100v-100zM400 300v250l-200 -200v-50h200z" />
    <glyph glyph-name="five" unicode="5" 
d="M600 200q0 -75 -62.5 -137.5t-137.5 -62.5h-100q-75 0 -137.5 62.5t-62.5 137.5h100q0 -38 31 -69t69 -31h100q38 0 69 31t31 69v100q0 38 -31 69t-69 31h-300v300h500v-100h-400v-100h200q75 0 137.5 -62.5t62.5 -137.5v-100z" />
    <glyph glyph-name="six" unicode="6" 
d="M600 200q0 -75 -62.5 -137.5t-137.5 -62.5h-100q-75 0 -137.5 62.5t-62.5 137.5v200q0 113 93.5 206.5t206.5 93.5h100v-100h-100q-75 0 -137.5 -62.5t-62.5 -137.5h200q75 0 137.5 -62.5t62.5 -137.5zM500 200q0 38 -31 69t-69 31h-200v-100q0 -38 31 -69t69 -31h100
q38 0 69 31t31 69z" />
    <glyph glyph-name="seven" unicode="7" 
d="M600 600q0 -63 -78 -137l-144 -126q-78 -74 -78 -137v-200h-100v200q0 86 77 170q22 23 144 125q78 65 79 105h-400v100h500v-100z" />
    <glyph glyph-name="eight" unicode="8" 
d="M600 200q0 -75 -62.5 -137.5t-137.5 -62.5h-100q-75 0 -137.5 62.5t-62.5 137.5q0 85 76 150q-76 65 -76 150q0 75 62.5 137.5t137.5 62.5h100q75 0 137.5 -62.5t62.5 -137.5q0 -85 -76 -150q76 -65 76 -150zM500 500q0 38 -31 69t-69 31h-100q-38 0 -69 -31t-31 -69
t31 -69t69 -31h100q38 0 69 31t31 69zM500 200q0 38 -31 69t-69 31h-100q-38 0 -69 -31t-31 -69t31 -69t69 -31h100q38 0 69 31t31 69z" />
    <glyph glyph-name="nine" unicode="9" 
d="M600 300q0 -113 -93.5 -206.5t-206.5 -93.5h-100v100h100q75 0 137.5 62.5t62.5 137.5h-200q-75 0 -137.5 62.5t-62.5 137.5t62.5 137.5t137.5 62.5h100q75 0 137.5 -62.5t62.5 -137.5v-200zM500 400v100q0 38 -31 69t-69 31h-100q-38 0 -69 -31t-31 -69t31 -69t69 -31
h200z" />
    <glyph glyph-name="colon" unicode=":" 
d="M400 400h-100v100h100v-100zM400 100h-100v100h100v-100z" />
    <glyph glyph-name="semicolon" unicode=";" 
d="M400 400h-100v100h100v-100zM400 100q0 -75 -62.5 -137.5t-137.5 -62.5v100q38 0 69 31t31 69v100h100v-100z" />
    <glyph glyph-name="less" unicode="&#x3c;" 
d="M500 100l-50 -100l-350 350l350 350l50 -100l-250 -250z" />
    <glyph glyph-name="equal" unicode="=" 
d="M600 400h-500v100h500v-100zM600 100h-500v100h500v-100z" />
    <glyph glyph-name="greater" unicode="&#x3e;" 
d="M600 350l-350 -350l-50 100l250 250l-250 250l50 100z" />
    <glyph glyph-name="question" unicode="?" 
d="M600 500q0 -65 -52 -120q-26 -28 -96 -76q-52 -36 -52 -54v-50h-100v50q0 42 52 87l96 76q52 45 52 87q0 38 -31 69t-69 31h-100q-38 0 -69 -31t-31 -69h-100q0 75 62.5 137.5t137.5 62.5h100q75 0 137.5 -62.5t62.5 -137.5zM400 0h-100v100h100v-100z" />
    <glyph glyph-name="at" unicode="@" 
d="M600 350q0 -56 -47 -103t-103 -47t-103 47t-47 103q0 71 47 113q42 37 103 37h50q0 38 -31 69t-69 31h-100q-37 0 -68.5 -31t-31.5 -69v-300q0 -37 31.5 -68.5t68.5 -31.5h200v-100h-200q-75 0 -137.5 62.5t-62.5 137.5v300q0 75 62.5 137.5t137.5 62.5h100
q75 0 137.5 -62.5t62.5 -137.5v-150zM500 350v50h-50q-19 0 -34.5 -15.5t-15.5 -34.5t15.5 -34.5t34.5 -15.5t34.5 15.5t15.5 34.5z" />
    <glyph glyph-name="A" unicode="A" 
d="M600 0h-100v200h-300v-200h-100v500l200 200h100l200 -200v-500zM500 300v150l-150 150l-150 -150v-150h300z" />
    <glyph glyph-name="B" unicode="B" 
d="M600 200q0 -75 -62.5 -137.5t-137.5 -62.5h-300v700h300q75 0 137.5 -62.5t62.5 -137.5q0 -85 -76 -150q76 -65 76 -150zM500 500q0 38 -31 69t-69 31h-200v-200h200q38 0 69 31t31 69zM500 200q0 38 -31 69t-69 31h-200v-200h200q38 0 69 31t31 69z" />
    <glyph glyph-name="C" unicode="C" 
d="M600 200q0 -75 -62.5 -137.5t-137.5 -62.5h-100q-75 0 -137.5 62.5t-62.5 137.5v300q0 75 62.5 137.5t137.5 62.5h100q75 0 137.5 -62.5t62.5 -137.5h-100q0 38 -31 69t-69 31h-100q-37 0 -68.5 -31t-31.5 -69v-300q0 -37 31.5 -68.5t68.5 -31.5h100q38 0 69 31.5
t31 68.5h100z" />
    <glyph glyph-name="D" unicode="D" 
d="M600 200q0 -75 -62.5 -137.5t-137.5 -62.5h-300v700h300q75 0 137.5 -62.5t62.5 -137.5v-300zM500 200v300q0 38 -31 69t-69 31h-200v-500h200q38 0 69 31.5t31 68.5z" />
    <glyph glyph-name="E" unicode="E" 
d="M600 0h-500v700h500v-100h-400v-204h300v-96h-300v-200h400v-100z" />
    <glyph glyph-name="F" unicode="F" 
d="M600 600h-400v-204h300v-96h-300v-300h-100v700h500v-100z" />
    <glyph glyph-name="G" unicode="G" 
d="M600 0h-300q-75 0 -137.5 62.5t-62.5 137.5v300q0 75 62.5 137.5t137.5 62.5h100q75 0 137.5 -62.5t62.5 -137.5h-100q0 38 -31 69t-69 31h-100q-37 0 -68.5 -31t-31.5 -69v-300q0 -37 31.5 -68.5t68.5 -31.5h200v100h-100v100h200v-300z" />
    <glyph glyph-name="H" unicode="H" 
d="M600 0h-100v300h-300v-300h-100v700h100v-300h300v300h100v-700z" />
    <glyph glyph-name="I" unicode="I" 
d="M500 0h-300v100h100v500h-100v100h300v-100h-100v-500h100v-100z" />
    <glyph glyph-name="J" unicode="J" 
d="M600 200q0 -75 -62.5 -137.5t-137.5 -62.5h-100q-75 0 -137.5 62.5t-62.5 137.5h100q0 -37 31.5 -68.5t68.5 -31.5h100q38 0 69 31.5t31 68.5v500h100v-500z" />
    <glyph glyph-name="K" unicode="K" 
d="M600 50v-50h-100l-300 300v-300h-100v700h100v-300l300 300h100v-50l-300 -300z" />
    <glyph glyph-name="L" unicode="L" 
d="M600 0h-500v700h100v-600h400v-100z" />
    <glyph glyph-name="M" unicode="M" 
d="M600 0h-100v500l-150 -150l-150 150v-500h-100v700h50l200 -200l200 200h50v-700z" />
    <glyph glyph-name="N" unicode="N" 
d="M600 0h-100v150l-300 300v-450h-100v700h100v-100l300 -300v400h100v-700z" />
    <glyph glyph-name="O" unicode="O" 
d="M600 200q0 -75 -62.5 -137.5t-137.5 -62.5h-100q-75 0 -137.5 62.5t-62.5 137.5v300q0 75 62.5 137.5t137.5 62.5h100q75 0 137.5 -62.5t62.5 -137.5v-300zM500 200v300q0 38 -31 69t-69 31h-100q-37 0 -68.5 -31t-31.5 -69v-300q0 -37 31.5 -68.5t68.5 -31.5h100
q38 0 69 31.5t31 68.5z" />
    <glyph glyph-name="P" unicode="P" 
d="M200 300v-300h-100v700h300q75 0 137.5 -62.5t62.5 -137.5q0 -99 -62 -153q-55 -47 -138 -47h-200zM500 500q0 38 -31 69t-69 31h-200v-200h200q38 0 69 31t31 69z" />
    <glyph glyph-name="Q" unicode="Q" 
d="M600 0h-100l-20 20q-40 -20 -80 -20h-100q-75 0 -137.5 62.5t-62.5 137.5v300q0 75 62.5 137.5t137.5 62.5h100q75 0 137.5 -62.5t62.5 -137.5v-300q0 -57 -39 -111l39 -39v-50zM500 200v300q0 38 -31 69t-69 31h-100q-38 0 -69 -31t-31 -69v-300q0 -38 31 -69t69 -31
h100l-100 100l50 100l140 -140q10 20 10 40z" />
    <glyph glyph-name="R" unicode="R" 
d="M600 0h-100l-300 300v-300h-100v700h300q75 0 137.5 -62.5t62.5 -137.5q0 -99 -62 -153q-55 -47 -138 -47h-50l250 -250v-50zM500 500q0 38 -31 69t-69 31h-200v-200h200q38 0 69 31t31 69z" />
    <glyph glyph-name="S" unicode="S" 
d="M600 200q0 -75 -62.5 -137.5t-137.5 -62.5h-100q-75 0 -137.5 62.5t-62.5 137.5h100q0 -37 31.5 -68.5t68.5 -31.5h100q38 0 69 31.5t31 68.5q0 38 -31 69t-69 31h-100q-75 0 -137.5 62.5t-62.5 137.5t62.5 137.5t137.5 62.5h100q75 0 137.5 -62.5t62.5 -137.5h-100
q0 38 -31 69t-69 31h-100q-37 0 -68.5 -31t-31.5 -69q0 -37 31.5 -68.5t68.5 -31.5h100q75 0 137.5 -62.5t62.5 -137.5z" />
    <glyph glyph-name="T" unicode="T" 
d="M600 600h-200v-600h-100v600h-200v100h500v-100z" />
    <glyph glyph-name="U" unicode="U" 
d="M600 200q0 -75 -62.5 -137.5t-137.5 -62.5h-100q-75 0 -137.5 62.5t-62.5 137.5v500h100v-500q0 -37 31.5 -68.5t68.5 -31.5h100q38 0 69 31.5t31 68.5v500h100v-500z" />
    <glyph glyph-name="V" unicode="V" 
d="M600 400l-200 -400h-100l-200 400v300h100v-275l150 -300l150 300v275h100v-300z" />
    <glyph glyph-name="W" unicode="W" 
d="M600 150q0 -56 -47 -103t-103 -47q-54 0 -100 44q-46 -44 -100 -44q-56 0 -103 47t-47 103v550h100v-550q0 -19 15.5 -34.5t34.5 -15.5t34.5 15.5t15.5 34.5v250h100v-250q0 -19 15.5 -34.5t34.5 -15.5t34.5 15.5t15.5 34.5v550h100v-550z" />
    <glyph glyph-name="X" unicode="X" 
d="M600 0h-100v150l-150 150l-150 -150v-150h-100v200l150 150l-150 150v200h100v-150l150 -150l150 150v150h100v-200l-150 -150l150 -150v-200z" />
    <glyph glyph-name="Y" unicode="Y" 
d="M600 500l-200 -200v-300h-100v300l-200 200v200h100v-150l150 -150l150 150v150h100v-200z" />
    <glyph glyph-name="Z" unicode="Z" 
d="M600 0h-500v175l400 400v25h-400v100h500v-175l-400 -400v-25h400v-100z" />
    <glyph glyph-name="bracketleft" unicode="[" 
d="M600 300h-300l125 -125v-75h-75l-250 250l250 250h75v-75l-125 -125h300v-100z" />
    <glyph glyph-name="backslash" unicode="\" 
d="M600 100h-75l-425 425v75h75l425 -425v-75z" />
    <glyph glyph-name="bracketright" unicode="]" 
d="M600 350l-250 -250h-75v75l125 125h-300v100h300l-125 125v75h75z" />
    <glyph glyph-name="asciicircum" unicode="^" 
d="M600 350v-75h-75l-125 125v-300h-100v300l-125 -125h-75v75l250 250z" />
    <glyph glyph-name="underscore" unicode="_" 
d="M600 -100h-500v100h500v-100z" />
    <glyph glyph-name="grave" unicode="`" 
d="M600 400h-500v100h500v-100z" />
    <glyph glyph-name="a" unicode="a" 
d="M600 0h-350q-56 0 -103 47t-47 103t47 103t103 47h250q0 37 -31 67.5t-69 32.5q0 -2 -200 0v100h200q75 0 137.5 -62.5t62.5 -137.5v-300zM500 100v100h-250q-20 0 -35 -15.5t-15 -34.5t15 -34.5t35 -15.5h250z" />
    <glyph glyph-name="b" unicode="b" 
d="M600 300v-100q0 -75 -62.5 -137.5t-137.5 -62.5h-300v700h100v-200h200q75 0 137.5 -62.5t62.5 -137.5zM500 200v100q0 37 -31 67.5t-69 32.5h-200v-300h200q36 0 68 32t32 68z" />
    <glyph glyph-name="c" unicode="c" 
d="M600 0h-300q-75 0 -137.5 62.5t-62.5 137.5v100q0 75 62.5 137.5t137.5 62.5h300v-100h-300q-38 -2 -69 -32.5t-31 -67.5v-100q0 -36 32 -68t68 -32h300v-100z" />
    <glyph glyph-name="d" unicode="d" 
d="M100 300q0 75 62.5 137.5t137.5 62.5h200v200h100v-700h-300q-75 0 -137.5 62.5t-62.5 137.5v100zM500 100v300h-200q-38 -2 -69 -32.5t-31 -67.5v-100q0 -36 32 -68t68 -32h200z" />
    <glyph glyph-name="e" unicode="e" 
d="M600 200h-400q0 -36 32 -68t68 -32h200v-100h-200q-75 0 -137.5 62.5t-62.5 137.5v100q0 75 62.5 137.5t137.5 62.5h100q86 0 147 -72q53 -63 53 -128v-100zM500 300q0 38 -31 69t-69 31h-100q-38 -2 -69 -32.5t-31 -67.5h300z" />
    <glyph glyph-name="f" unicode="f" 
d="M500 300h-100v-300h-100v300h-100v100h100v100q0 75 62.5 137.5t137.5 62.5v-100q-37 0 -68.5 -31t-31.5 -69v-100h100v-100z" />
    <glyph glyph-name="g" unicode="g" 
d="M600 0q0 -75 -62.5 -137.5t-137.5 -62.5h-200v100h200q38 0 69 31t31 69h-200q-75 0 -137.5 62.5t-62.5 137.5v100q0 75 62.5 137.5t137.5 62.5h300v-500zM500 100v300h-200q-36 0 -68 -32t-32 -68v-100q0 -37 31 -67.5t69 -32.5h200z" />
    <glyph glyph-name="h" unicode="h" 
d="M600 0h-100v300q0 38 -31 69t-69 31h-200v-400h-100v700h100v-200h200q75 0 137.5 -62.5t62.5 -137.5v-300z" />
    <glyph glyph-name="i" unicode="i" 
d="M400 600h-100v100h100v-100zM500 0h-300v100h100v300h-100v100h200v-400h100v-100z" />
    <glyph glyph-name="j" unicode="j" 
d="M400 600h-100v100h100v-100zM400 0q0 -92 -62 -148q-58 -52 -138 -52v100q38 0 69 31t31 69v500h100v-500z" />
    <glyph glyph-name="k" unicode="k" 
d="M600 0h-100l-200 200v-200h-100v700h100v-400l200 200h100v-50l-200 -200l200 -200v-50z" />
    <glyph glyph-name="l" unicode="l" 
d="M500 0h-300v100h100v500h-100v100h200v-600h100v-100z" />
    <glyph glyph-name="m" unicode="m" 
d="M600 0h-100v350q0 19 -15.5 34.5t-34.5 15.5t-34.5 -15.5t-15.5 -34.5v-350h-100v350q0 19 -15.5 34.5t-34.5 15.5t-34.5 -15.5t-15.5 -34.5v-350h-100v500h100v-11q25 11 50 11q54 0 100 -44q46 44 100 44q56 0 103 -47t47 -103v-350z" />
    <glyph glyph-name="n" unicode="n" 
d="M600 0h-100v300q0 38 -31 69t-69 31h-200v-400h-100v500h300q75 0 137.5 -62.5t62.5 -137.5v-300z" />
    <glyph glyph-name="o" unicode="o" 
d="M600 200q0 -75 -62.5 -137.5t-137.5 -62.5h-100q-75 0 -137.5 62.5t-62.5 137.5v100q0 75 62.5 137.5t137.5 62.5h100q75 0 137.5 -62.5t62.5 -137.5v-100zM500 200v100q0 38 -31 69t-69 31h-100q-37 0 -68.5 -31t-31.5 -69v-100q0 -37 31.5 -68.5t68.5 -31.5h100
q38 0 69 31.5t31 68.5z" />
    <glyph glyph-name="p" unicode="p" 
d="M600 200q0 -75 -62.5 -137.5t-137.5 -62.5h-200v-200h-100v700h300q75 0 137.5 -62.5t62.5 -137.5v-100zM500 200v100q0 36 -32 68t-68 32h-200v-300h200q38 2 69 32.5t31 67.5z" />
    <glyph glyph-name="q" unicode="q" 
d="M100 200v100q0 75 62.5 137.5t137.5 62.5h300v-700h-100v200h-200q-75 0 -137.5 62.5t-62.5 137.5zM500 100v300h-200q-36 0 -68 -32t-32 -68v-100q0 -37 31 -67.5t69 -32.5h200z" />
    <glyph glyph-name="r" unicode="r" 
d="M600 400h-100q-75 0 -137.5 -62.5t-62.5 -137.5v-200h-100v500h100v-88q92 88 200 88h100v-100z" />
    <glyph glyph-name="s" unicode="s" 
d="M600 150q0 -56 -47 -103t-103 -47h-350v100h350q18 0 35 15.5t17 33.5q0 19 -16.5 35t-35.5 16h-200q-56 0 -103 47t-47 103t47 103t103 47h350v-100h-350q-18 0 -35 -15.5t-17 -33.5q0 -19 17 -35t35 -16h200q56 0 103 -47t47 -103z" />
    <glyph glyph-name="t" unicode="t" 
d="M500 0q-75 0 -137.5 62.5t-62.5 137.5v200h-100v100h100v200h100v-200h100v-100h-100v-200q0 -37 31.5 -68.5t68.5 -31.5v-100z" />
    <glyph glyph-name="u" unicode="u" 
d="M600 0h-300q-75 0 -137.5 62.5t-62.5 137.5v300h100v-300q0 -37 31.5 -68.5t68.5 -31.5h200v400h100v-500z" />
    <glyph glyph-name="v" unicode="v" 
d="M600 400l-200 -400h-100l-200 400v100h100v-75l150 -300l150 300v75h100v-100z" />
    <glyph glyph-name="w" unicode="w" 
d="M600 150q0 -56 -47 -103t-103 -47q-54 0 -100 44q-46 -44 -100 -44q-56 0 -103 47t-47 103v350h100v-350q0 -19 15.5 -34.5t34.5 -15.5t34.5 15.5t15.5 34.5v150h100v-150q0 -19 15.5 -34.5t34.5 -15.5t34.5 15.5t15.5 34.5v350h100v-350z" />
    <glyph glyph-name="x" unicode="x" 
d="M600 0h-75l-175 175l-175 -175h-75v75l175 175l-175 175v75h75l175 -175l175 175h75v-75l-175 -175l175 -175v-75z" />
    <glyph glyph-name="y" unicode="y" 
d="M600 0q0 -75 -62.5 -137.5t-137.5 -62.5h-200v100h200q38 0 68.5 31t31.5 69h-200q-75 0 -137.5 62.5t-62.5 137.5v300h100v-300q0 -38 31 -69t69 -31h200v400h100v-500z" />
    <glyph glyph-name="z" unicode="z" 
d="M600 0h-500v75l325 325h-325v100h500v-75l-325 -325h325v-100z" />
    <glyph glyph-name="braceleft" unicode="{" 
d="M500 0h-300v700h300v-100h-175v-500h175v-100z" />
    <glyph glyph-name="bar" unicode="|" 
d="M500 0h-100v700h100v-700zM300 0h-100v700h100v-700z" />
    <glyph glyph-name="braceright" unicode="}" 
d="M500 0h-300v100h175v500h-175v100h300v-700z" />
    <glyph glyph-name="nonbreakingspace" unicode="&#xa0;" 
 />
    <glyph glyph-name="sterling" unicode="&#xa3;" 
d="M600 -100h-500v100h100v200h-100v100h100v200q0 75 62.5 137.5t137.5 62.5t137.5 -62.5t62.5 -137.5h-100q0 38 -31 69t-69 31q-37 0 -68.5 -31t-31.5 -69v-200h100v-100h-100v-200h300v-100z" />
    <glyph glyph-name="onequarter" unicode="&#xbc;" 
d="M300 200h-100v500h100v-500zM600 -200h-100v100h-200v175l225 225h75v-500zM500 0v125l-100 -100v-25h100z" />
    <glyph glyph-name="onehalf" unicode="&#xbd;" 
d="M200 200h-100v500h100v-500zM600 -200h-300v75q0 44 6 63q10 28 44 62l150 150q0 19 -15.5 34.5t-34.5 15.5h-150v100h150q56 0 103 -47t47 -103q0 -50 -50 -100l-150 -150h200v-100z" />
    <glyph glyph-name="threequarters" unicode="&#xbe;" 
d="M400 350q0 -56 -47 -103t-103 -47h-150v100h150q19 0 34.5 15.5t15.5 34.5t-15.5 34.5t-34.5 15.5h-150v100h150q19 0 34.5 15.5t15.5 34.5t-15.5 34.5t-34.5 15.5h-150v100h150q56 0 103 -47t47 -103q0 -54 -44 -100q44 -46 44 -100zM600 -200h-100v100h-200v175
l225 225h75v-500zM500 0v125l-100 -100v-25h100z" />
    <glyph glyph-name="divide" unicode="&#xf7;" 
d="M300 200h100v-100h-100v100zM100 400h500v-100h-500v100zM300 600h100v-100h-100v100z" />
    <glyph glyph-name="glyph103" 
 />
    <glyph glyph-name="glyph104" 
 />
    <glyph glyph-name="DEL" 
d="M0 700h600v-700h-600v700z" />
  </font>
</defs>
</svg>
