<svg style="height: 512px; width: 512px;" xmlns="http://www.w3.org/2000/svg" viewBox="0 0 512 512"><defs><filter id="shadow-2" height="300%" width="300%" x="-100%" y="-100%"><feFlood flood-color="rgba(115, 4, 159, 1)" result="flood"></feFlood><feComposite in="flood" in2="SourceGraphic" operator="atop" result="composite"></feComposite>0<feOffset dx="8" dy="5" result="offset"></feOffset><feComposite in="SourceGraphic" in2="offset" operator="over"></feComposite></filter><filter id="shadow-4" height="300%" width="300%" x="-100%" y="-100%"><feFlood flood-color="rgba(88, 9, 134, 1)" result="flood"></feFlood><feComposite in="flood" in2="SourceGraphic" operator="atop" result="composite"></feComposite>0<feOffset dx="8" dy="5" result="offset"></feOffset><feComposite in="SourceGraphic" in2="offset" operator="over"></feComposite></filter><filter id="shadow-5" height="300%" width="300%" x="-100%" y="-100%"><feFlood flood-color="rgba(88, 9, 134, 1)" result="flood"></feFlood><feComposite in="flood" in2="SourceGraphic" operator="atop" result="composite"></feComposite>0<feOffset dx="8" dy="5" result="offset"></feOffset><feComposite in="SourceGraphic" in2="offset" operator="over"></feComposite></filter><filter id="shadow-6" height="300%" width="300%" x="-100%" y="-100%"><feFlood flood-color="rgba(38, 5, 57, 1)" result="flood"></feFlood><feComposite in="flood" in2="SourceGraphic" operator="atop" result="composite"></feComposite>0<feOffset dx="10" dy="8" result="offset"></feOffset><feComposite in="SourceGraphic" in2="offset" operator="over"></feComposite></filter><filter id="shadow-7" height="300%" width="300%" x="-100%" y="-100%"><feFlood flood-color="rgba(88, 9, 134, 1)" result="flood"></feFlood><feComposite in="flood" in2="SourceGraphic" operator="atop" result="composite"></feComposite>0<feOffset dx="8" dy="5" result="offset"></feOffset><feComposite in="SourceGraphic" in2="offset" operator="over"></feComposite></filter><linearGradient x1="0" x2="1" y1="1" y2="0" id="darkzaitzev-chameleon-glyph-gradient-0"><stop offset="0%" stop-color="#9013fe" stop-opacity="1"></stop><stop offset="100%" stop-color="#190425" stop-opacity="1"></stop></linearGradient></defs><circle cx="256" cy="256" r="256" fill="url(#darkzaitzev-chameleon-glyph-gradient-0)"></circle><g class="" style="" transform="translate(0,0)"><g transform="translate(25.6, 25.6) scale(0.9, 0.9) rotate(0, 256, 256) skewX(0) skewY(0)"><path d="M339.84 22.826C328.414 22.516 327.512 67.876 317.39 62.598C312.634 60.119 307.777 57.84 302.83 55.768C286.645 41.034 256.188 17.894 238.809 31.271C235.237 34.283 232.692 38.039 231.109 42.261C219.493 31.766 202.682 28.032 189.66 38.225C185.19 41.919 182.363 46.855 181.027 52.258C171.365 50.069 161.347 50.226 151.627 58.064C147.28 61.634 144.454 66.417 143.119 71.727C138.834 74.583 134.799 78.06 130.73 81.414L248.621 145.869L105.924 106.344C104.992 107.462 104.153 108.674 103.254 109.822L234.182 181.389L83.35 139.598C82.947 140.312 82.48 140.962 82.107 141.676L219.775 216.938L67.08 174.65C66.832 175.271 66.645 175.893 66.396 176.514L201.706 250.437C228.127 228.549 263.862 226.128 287.18 220.354C323.971 211.256 339.123 203.4 339.123 203.4L456.051 222.434C491.074 184.244 389.889 24.192 339.84 22.826Z" class="selected" fill="#8e05c2" fill-opacity="1" stroke="#c87bf4" stroke-opacity="1" stroke-width="2" filter="url(#shadow-2)"></path><path d="M377.828 116.48C382.584 116.443 387.104 118.547 390.138 122.21C395.758 128.948 394.858 139.008 388.119 144.627C381.351 150.278 371.29 149.377 365.672 142.578C360.052 135.841 360.952 125.813 367.689 120.193C370.535 117.815 374.12 116.503 377.829 116.48Z" class="" fill="#260539" fill-opacity="1" stroke="#c87bf4" stroke-opacity="1" stroke-width="2"></path><path d="M55.967 211.068C55.718 212 55.469 212.901 55.252 213.801L177.892 280.834C180.22 276.736 182.364 272.699 185.158 268.445C189.722 261.491 195.094 256.027 200.775 251.184L55.967 211.068Z" class="" fill="#700b97" fill-opacity="1" stroke="#c87bf4" stroke-opacity="1" stroke-width="2" filter="url(#shadow-4)"></path><path d="M49.57 248.824C49.383 250.531 49.384 252.27 49.26 253.947L162.46 315.827C165.473 305.674 169.913 295.085 176.123 283.877L49.57 248.824Z" class="" fill="#700b97" fill-opacity="1" stroke="#c87bf4" stroke-opacity="1" stroke-width="2" filter="url(#shadow-5)"></path><path d="M269.322 264.309C241.18 264.7 224.775 273.539 224.775 273.539C224.775 273.539 224.545 273.66 224.465 273.693C189.828 288.099 179.075 345.807 188.387 369.695C199.44 398.053 229.69 417.427 249.242 421.67C267.015 425.527 294.575 420.974 314.66 389.846C321.357 379.468 328.983 332.311 287.244 320.266C260.788 312.631 252.314 328.246 252.314 328.246C252.314 328.246 266.478 322.516 280.414 333.866C300.601 350.303 298.754 388.206 258.838 385.73C230.988 384.004 212.966 355.748 221.621 329.783C230.74 302.426 256.373 296.022 284.078 299.961C313.551 304.151 326.582 328.029 326.582 328.029L327.016 328.836C331.953 337.002 335.15 346.037 336.703 355.258C339.932 373.731 336.083 392.981 327.141 408.412C327.141 408.412 315.771 436.254 277.311 446.043C232.618 457.418 182.04 415.624 176.652 406.828C166.732 390.63 160.413 374.663 158.334 357.99L53.482 328.96C54.662 334.55 56.339 340.012 57.924 345.508L147.744 394.596L67.424 372.334C79.625 401.054 97.789 427.754 123.59 450.047C123.59 450.047 184.408 498.117 279.52 487.699C356.015 479.319 384.531 412.839 376.352 348.426C376.352 348.426 376.399 288.378 314.537 270.633C297.332 265.698 282.114 264.13 269.322 264.309Z" class="" fill="#3e065f" fill-opacity="1" stroke="#c87bf4" stroke-opacity="1" stroke-width="2" filter="url(#shadow-6)"></path><path d="M48.732 288.099C48.857 291.173 48.857 294.216 49.105 297.259L158.301 356.934C156.934 344.918 157.99 332.468 161.467 319.334L48.732 288.1Z" class="" fill="#700b97" fill-opacity="1" stroke="#c87bf4" stroke-opacity="1" stroke-width="2" filter="url(#shadow-7)"></path></g></g></svg>